<svg width="325" height="325" viewBox="0 0 325 325" fill="none" xmlns="http://www.w3.org/2000/svg">
<g clip-path="url(#clip0_391_431)">
<path d="M137.033 286.355V286.533L133.206 304.434C133.028 305.233 133.206 305.767 133.65 306.033C134.094 306.3 134.983 306.655 136.233 307.011L136.145 307.455L126.35 305.405L126.439 304.96C127.861 305.227 128.845 305.227 129.289 305.049C129.733 304.872 130.089 304.338 130.267 303.45L133.206 289.739C133.294 289.206 133.294 288.85 133.206 288.584C133.117 288.317 132.85 288.139 132.406 288.05C132.139 287.961 131.695 287.961 131.162 288.05C130.628 288.05 130.184 288.139 129.74 288.228L129.829 287.784L136.862 286.362L137.033 286.355Z" fill="#231F20"/>
<path d="M158.761 291.522C160.094 293.395 160.634 295.439 160.456 297.578C160.367 299.089 159.923 300.606 159.123 302.205C158.323 303.716 157.25 305.056 155.917 306.211C154.318 307.544 152.356 308.439 149.951 308.972C148.618 309.239 147.012 309.505 144.961 309.505L144.784 308.883C146.028 308.705 147.101 308.528 147.9 308.35C149.411 307.995 150.662 307.461 151.55 306.75C152.883 305.862 153.956 304.789 154.845 303.545C155.645 302.301 156.267 301.317 156.444 300.517L155.822 300.872C154.934 301.406 153.861 301.672 152.617 301.85C151.995 301.939 151.461 301.939 150.922 301.939C148.872 301.761 147.361 301.05 146.294 299.8C145.228 298.467 144.695 297.039 144.873 295.35C145.05 293.211 145.85 291.434 147.367 290.183C148.878 288.85 150.75 288.31 152.89 288.488C155.467 288.583 157.422 289.65 158.761 291.522ZM155.111 300.244C156 299.889 156.533 299.622 156.622 299.355C156.711 299.267 156.711 298.911 156.8 298.2C156.889 297.578 156.978 297.045 156.978 296.601C157.155 294.461 156.8 292.773 156.089 291.345C155.378 290.012 154.216 289.205 152.617 289.117C151.461 289.028 150.478 289.383 149.678 290.272C148.878 291.161 148.434 292.411 148.345 294.277C148.256 295.788 148.434 297.127 149.056 298.46C149.678 299.793 150.839 300.511 152.528 300.6C153.328 300.784 154.216 300.6 155.111 300.244Z" fill="#231F20"/>
<path d="M178.706 307.011C177.461 308.61 175.678 309.417 173.45 309.594C171.399 309.772 169.444 309.061 167.572 307.544C165.699 306.033 164.722 303.894 164.544 301.133C164.277 297.572 165.699 294.455 168.905 291.694C171.755 289.377 174.96 288.044 178.699 287.777L178.788 288.222C177.277 288.577 176.027 288.933 175.049 289.466C173.983 289.91 173.088 290.532 172.288 291.338C171.488 292.145 170.689 293.122 170.06 294.277C169.349 295.433 168.905 296.594 168.727 297.75C169.438 297.305 170.06 297.039 170.6 296.772C171.488 296.417 172.472 296.15 173.45 296.061C175.322 295.883 176.922 296.328 178.35 297.394C179.683 298.372 180.489 299.889 180.578 301.933C180.578 303.716 180.039 305.411 178.706 307.011ZM176.3 299.8C175.322 298.105 173.894 297.305 171.85 297.483C169.978 297.572 168.822 298.194 168.289 299.178C167.934 299.711 167.845 300.688 167.934 301.939C168.022 303.634 168.556 305.145 169.533 306.655C170.422 308.166 171.85 308.883 173.627 308.706C175.049 308.617 176.033 307.995 176.566 306.922C177.1 305.855 177.366 304.605 177.277 303.272C177.195 301.939 176.922 300.784 176.3 299.8Z" fill="#231F20"/>
<path d="M189.922 305.411C191.077 305.767 192.061 305.855 192.772 305.678C194.372 305.322 195.533 304.611 196.066 303.538C196.688 302.472 196.866 301.31 196.6 300.244C196.333 299.178 195.889 298.283 195.089 297.661C193.756 296.505 191.794 296.239 189.211 296.772L188.767 296.861L188.322 297.038L188.233 296.683C189.928 295.705 191.261 294.722 192.15 293.744C193.039 292.767 193.394 291.694 193.127 290.45C192.861 289.383 192.328 288.666 191.344 288.222C190.366 287.866 189.382 287.777 188.316 287.955C187.072 288.222 185.999 288.844 185.199 289.916C184.755 290.45 184.311 291.249 183.955 292.322H183.422C183.6 290.723 184.133 289.383 185.294 288.228C186.361 287.073 187.7 286.267 189.389 285.911C191.172 285.556 192.594 285.644 193.75 286.267C194.905 286.889 195.622 287.777 195.8 288.85C195.978 289.828 195.8 290.811 195.178 291.789C194.822 292.322 194.2 293.033 193.394 293.75C194.549 293.928 195.622 294.195 196.422 294.55C197.933 295.35 198.828 296.512 199.183 298.111C199.539 299.984 199.094 301.85 197.672 303.634C196.25 305.417 193.934 306.662 190.728 307.372C189.306 307.639 188.233 307.728 187.611 307.461C186.989 307.195 186.634 306.928 186.545 306.484C186.456 306.217 186.545 305.951 186.723 305.684C186.9 305.417 187.167 305.24 187.611 305.151C187.878 304.967 188.767 305.056 189.922 305.411Z" fill="#231F20"/>
<path d="M88.6831 289.916L87.9722 290.983L83.2559 287.511L81.2056 286.178L79.1553 284.845L78.6221 284.489L79.333 283.423C80.3994 284.134 81.1167 284.578 81.561 284.578L82.1831 284.311C82.7163 283.867 83.5161 282.801 84.7666 281.106L86.728 278.256L87.7056 276.834C88.772 275.323 89.4004 274.428 89.5781 273.984C90.0225 273.184 90.2002 272.384 90.2002 271.667C90.2002 270.956 89.8447 270.156 89.3115 269.35C88.7783 268.55 87.8897 267.655 86.728 266.855C85.395 265.878 84.1445 265.345 83.0781 265.161C82.0117 264.983 81.0278 265.072 80.3169 265.516C79.5171 265.872 78.5332 266.938 77.2891 268.722L75.5054 271.216C73.9946 273.355 73.0996 274.688 72.7441 275.222C72.0332 276.288 71.6777 276.916 71.6777 277.272L71.7666 277.805C71.9443 278.161 72.6553 278.694 73.6392 279.5L72.9282 280.566C71.2334 279.233 70.2559 278.516 69.9004 278.249L69.4561 277.983L66.1616 275.844L66.8726 274.777C67.7612 275.399 68.3833 275.755 68.7451 275.755L69.2783 275.577C69.4561 275.399 70.167 274.688 71.2397 273.26C72.395 271.838 73.2012 270.677 73.8232 269.877L75.8735 266.938C76.4067 266.227 77.0288 265.516 77.6572 264.799C78.3682 264.088 79.0791 263.643 79.7964 263.288C80.5962 263.021 81.4912 262.844 82.4687 262.933C83.4463 262.933 84.519 263.199 85.6743 263.643C86.8296 264.088 87.9912 264.71 89.2353 265.605C90.7461 266.671 91.9966 267.744 93.063 268.988C93.8628 269.877 94.396 270.772 94.6626 271.572C94.9292 272.371 95.1069 273.171 95.0181 273.889C94.9292 274.6 94.8403 275.222 94.5737 275.761C94.396 276.117 93.8628 276.916 92.9741 278.167L91.2793 280.484L89.0513 283.601C88.2515 284.756 87.5405 285.829 86.9121 286.717C86.6455 287.073 86.5566 287.428 86.5566 287.606C86.5566 287.695 86.5566 287.961 86.7344 288.228L88.6831 289.916Z" fill="#231F20"/>
<path d="M75.3276 257.861C74.3501 256.794 73.8169 256.261 73.6328 256.077L73.2773 255.988L72.7441 256.166C72.3887 256.344 71.6777 256.877 70.4272 257.766C69.7163 258.299 68.9165 258.921 67.8438 259.816L64.105 262.933L60.8106 265.783C60.2773 266.227 59.9219 266.583 59.7441 266.76L59.5664 267.293L59.7441 267.916C59.833 268.182 60.2773 268.804 61.0772 269.788L60.0996 270.588C59.2109 269.344 58.5 268.449 58.0493 267.916L56.3608 265.967L55.2056 264.723C55.7388 261.073 56.1831 256.801 56.6274 251.812C56.9829 248.25 57.1606 245.4 57.1606 243.172L54.4883 245.4C50.3052 248.873 47.9883 251.012 47.2773 251.723C47.0107 251.989 46.9219 252.256 46.9219 252.434C46.9219 252.789 47.4551 253.5 48.5215 254.75L47.5439 255.55C46.6553 254.395 45.8491 253.322 45.0493 252.434C44.3384 251.545 43.3545 250.472 42.1104 249.139L43.0879 248.339C44.0654 249.406 44.6875 250.034 44.9605 250.123H45.2271C45.7603 249.945 46.6489 249.234 48.0771 248.162C49.499 247.006 50.4829 246.2 51.1939 245.578C56.3608 241.217 59.3887 238.545 60.4551 237.567L60.7217 237.656C61.2549 238.545 61.7881 239.44 62.3213 240.24C61.9658 245.496 61.3438 253.24 60.271 263.301L66.0601 258.496C67.2153 257.518 68.4658 256.445 69.71 255.29C70.5986 254.49 71.043 253.957 71.2207 253.779L71.3096 253.424L71.043 252.891C70.5986 252.269 70.2432 251.824 70.0654 251.558L69.7988 251.291L70.7764 250.491C72.1982 252.275 73.0044 253.252 73.1821 253.519C73.8931 254.408 74.9658 255.569 76.3877 257.08L75.3276 257.861Z" fill="#231F20"/>
<path d="M32.9443 234.267L34.0996 233.556C34.7217 234.622 35.166 235.155 35.3437 235.339L35.6992 235.695L36.0547 235.784C36.2324 235.784 36.5879 235.606 37.0322 235.428C37.2988 235.339 37.6543 235.073 38.2764 234.717C40.4155 233.473 41.5708 232.756 41.7485 232.667L47.0044 229.55L49.3213 228.04C50.21 227.506 50.7432 227.062 51.0161 226.884L51.1938 226.529L51.105 225.996C51.0161 225.729 50.6606 225.196 50.1274 224.123L51.2827 223.412C52.1714 225.107 53.2441 226.884 54.3994 228.846C55.3769 230.445 56.272 231.962 57.1606 233.207L56.0054 233.917C55.2944 232.851 54.939 232.223 54.7612 232.045L54.3169 231.689H54.0503C53.9614 231.689 53.5171 231.956 52.7173 232.312C51.6509 232.934 50.667 233.467 49.7783 234.006L44.3447 237.301C42.6499 238.367 41.4946 238.996 41.0503 239.351C39.9839 240.062 39.3555 240.506 39.0889 240.773L38.9111 241.04L39 241.484C39.0889 241.662 39.4443 242.373 40.0664 243.445L38.9111 244.156C38.2002 242.823 37.4004 241.306 36.3276 239.618C35.1724 237.561 34.0107 235.873 32.9443 234.267Z" fill="#231F20"/>
<path d="M45.1445 210.228C43.5449 211.923 42.0278 213.522 40.5171 215.128L36.6006 219.312C33.5728 222.606 31.7954 224.656 31.167 225.367C30.6338 226.078 30.3672 226.522 30.2783 226.789C30.2783 227.145 30.4561 227.855 30.8115 228.928L29.5674 229.373C28.5898 226.7 28.0566 225.012 27.7837 224.472L25.3779 218.505L26.6221 218.061C26.9775 218.95 27.333 219.661 27.5107 220.022L27.9551 220.467H28.3994C28.666 220.378 29.4658 219.667 30.6274 218.328C31.3384 217.617 31.6938 217.172 31.7827 217.083L31.9604 216.906L39.0825 209.339L29.9102 208.628C29.7324 208.628 28.666 208.54 26.7935 208.451C25.4604 208.362 24.5654 208.362 24.1211 208.451L23.7656 208.54L23.5879 208.806L23.499 209.073C23.499 209.162 23.5879 209.339 23.6768 209.695C23.9434 210.406 24.1211 211.028 24.2988 211.567L23.0547 212.012L21.5439 207.74L20.0332 204.179L21.2773 203.734C21.8105 204.801 22.0771 205.334 22.2549 205.518C22.6104 205.785 23.8545 205.962 26.1714 206.14L29.0215 206.407L34.4551 206.94C39.0825 207.384 42.2881 207.562 44.1606 207.651L45.1445 210.228Z" fill="#231F20"/>
<path d="M39.2666 193.845L38.4668 194.022C38.0225 193.4 37.667 192.867 37.3115 192.512C36.8672 192.512 36.1562 192.601 35.2612 192.689C33.5664 192.867 32.3223 193.045 31.5225 193.223L24.8447 194.378C24.5781 194.467 23.6006 194.645 21.9946 195C20.9282 195.267 20.2109 195.444 19.9443 195.622L19.7666 195.889C19.6777 196.244 19.7666 197.044 19.9443 198.472L18.7891 198.65L17.9893 194.645C17.8115 193.845 17.7227 193.045 17.5449 192.328C17.2783 190.728 16.9229 188.944 16.5674 186.983L15.8564 183.422C15.7676 182.978 15.6787 182.178 15.501 180.838C15.501 180.75 15.501 180.483 15.5898 180.216L15.7676 180.039H17.9956C18.1733 180.039 18.8843 179.95 20.2236 179.861L20.4902 181.194C19.335 181.46 18.6177 181.549 18.4399 181.727L18.1733 181.994C18.0845 182.171 18.0845 182.616 18.1733 183.416C18.2622 184.571 18.4399 185.732 18.6177 186.799C18.7954 187.865 19.062 188.849 19.3286 189.916C20.4839 189.916 21.9121 189.738 23.6006 189.471L26.6284 188.938C26.5396 188.138 26.4507 187.338 26.3618 186.443C26.2729 186.177 26.0952 185.199 25.8286 183.593C25.7397 182.971 25.6509 182.616 25.562 182.527L25.2065 182.349C24.7622 182.26 24.1401 182.349 23.2451 182.438L22.9785 181.016L26.2729 180.483L29.5674 179.861L29.834 181.283C28.6787 181.46 27.9614 181.727 27.7837 181.905C27.606 182.083 27.5171 182.349 27.5171 182.705C27.5171 183.504 27.6948 184.577 27.8726 185.821C28.0503 186.977 28.3169 187.872 28.4946 188.583L34.728 187.516C35.439 187.427 36.061 187.25 36.5117 187.161C36.4228 186.183 36.2451 185.11 36.0674 183.777C35.8008 182.533 35.623 181.372 35.3564 180.305C35.0898 179.239 34.9121 178.61 34.7344 178.433L34.3789 178.255C33.8457 178.166 32.8682 178.077 31.4399 178.077L31.1733 176.655C33.2236 176.566 34.8232 176.389 36.0737 176.211L36.3403 176.389C36.6069 177.1 36.7847 178.172 37.0513 179.594L37.4956 182.444C37.9399 185.206 38.2954 187.161 38.4731 188.233C38.1113 188.233 38.4668 190.195 39.2666 193.845Z" fill="#231F20"/>
<path d="M15.8501 172.472H14.5171C14.5171 172.206 14.5171 171.228 14.606 169.622C14.606 168.822 14.6948 167.661 14.6948 166.239C14.6948 164.995 14.6948 163.922 14.606 163.033C14.5171 161.522 14.5171 160.361 14.5171 159.383C14.5171 157.511 14.606 156.089 14.8726 155.2C15.1392 154.312 15.5835 153.505 16.2944 152.794C17.0054 152.172 17.894 151.817 18.8779 151.817C20.1221 151.817 21.1948 152.261 22.1724 153.15C23.1499 154.039 23.9561 155.467 24.5781 157.333C25.0225 157.066 25.4668 156.711 26 156.355C26.4443 156 26.7998 155.733 26.8887 155.645L27.1553 155.467L30.6274 152.706C31.605 151.995 32.0493 151.55 32.1382 151.55C33.1157 150.662 33.7378 150.128 33.9219 149.855L34.2773 149.233C34.3662 149.056 34.3662 148.7 34.3662 148.078H35.6992C35.6104 149.951 35.5215 151.284 35.5215 152.083C35.5215 153.061 35.6104 153.956 35.6992 154.934C35.5215 155.022 35.166 155.111 34.8105 155.378L29.4658 159.206C27.9551 160.272 26.7046 161.256 25.8159 161.967C25.3716 162.322 25.0161 162.678 24.8384 163.033L24.3052 162.855C24.3052 161.434 24.2163 160.361 23.9497 159.561C23.6831 158.85 23.1499 158.228 22.439 157.688C21.728 157.155 20.8394 156.889 19.9443 156.889C19.0557 156.889 18.2495 157.155 17.6274 157.688C17.0054 158.222 16.561 158.844 16.3833 159.65C16.2056 160.183 16.1167 161.072 16.1167 162.322C16.1167 162.944 16.1167 163.478 16.2056 164.017C16.561 164.017 17.3608 164.106 18.6113 164.106C21.4614 164.195 23.4165 164.195 24.4004 164.195C25.9111 164.195 27.5171 164.195 29.2056 164.195C31.2559 164.195 32.5 164.195 32.7666 164.106C33.2998 164.106 33.6553 164.017 33.833 163.928L34.0107 163.662L34.1885 163.128C34.1885 162.862 34.2773 162.24 34.2773 161.078H35.6103C35.5215 163.128 35.4326 165.172 35.4326 167.223C35.4326 169.006 35.5215 170.695 35.6103 172.301H34.2773C34.2773 170.968 34.1885 170.162 34.0996 169.895L33.9219 169.628L33.4775 169.451C33.1221 169.362 32.5 169.273 31.6938 169.273L27.2441 169.184H21.8105L18.605 169.273C17.3608 169.273 16.5547 169.362 16.377 169.451L16.1104 169.717C16.0278 170.155 15.939 170.961 15.8501 172.472Z" fill="#231F20"/>
<path d="M24.5781 126.083L24.2227 127.594C23.0674 127.416 22.2612 127.239 21.8169 127.239C21.2837 127.505 20.8394 128.039 20.3062 128.838C19.7729 129.638 19.4175 130.622 19.1509 131.688C18.7954 133.288 18.8843 134.539 19.4175 135.605C19.8618 136.583 20.5728 137.205 21.4678 137.389C22.0898 137.478 22.7119 137.478 23.1626 137.3C23.6069 137.122 24.0513 136.855 24.3179 136.411C24.6733 135.967 25.0288 135.345 25.3843 134.539C25.6509 133.916 26.0063 132.939 26.4507 131.777C26.895 130.622 27.1616 129.816 27.3394 129.46C27.7837 128.572 28.1392 127.861 28.5835 127.321C29.0278 126.788 29.4722 126.433 29.9165 126.166C30.3608 125.899 30.894 125.722 31.5161 125.633C32.1382 125.544 32.8491 125.544 33.5664 125.722C34.8105 125.988 35.8833 126.521 36.6831 127.321C37.3052 127.943 37.8384 128.743 38.1938 129.727C38.6382 130.705 38.9048 131.6 38.9937 132.577C39.1714 134.088 39.0825 135.783 38.6382 137.833C38.3716 139.255 37.9272 140.505 37.4829 141.572C37.0386 142.638 36.3276 143.8 35.5215 145.044C34.4551 144.422 32.7603 143.889 30.5322 143.444L30.8877 141.934C31.5986 142.111 32.4873 142.2 33.5601 142.289C34.271 141.934 34.9819 141.312 35.6104 140.328C36.3213 139.35 36.7656 138.188 37.0322 136.944C37.2988 135.878 37.2988 134.805 37.21 133.828C37.0322 132.85 36.7656 132.133 36.2324 131.688C35.6992 131.155 35.0772 130.8 34.3599 130.711C33.7378 130.622 33.2046 130.622 32.665 130.8C32.1318 130.978 31.6875 131.333 31.332 131.866C30.9766 132.399 30.4434 133.377 29.8213 134.805C29.0215 136.855 28.3994 138.188 28.1265 138.811C27.6821 139.788 27.1489 140.505 26.5269 141.039C25.9048 141.572 25.1938 141.927 24.4766 142.016C23.7656 142.194 22.9658 142.194 22.1597 142.016C21.0933 141.75 20.1094 141.305 19.3096 140.505C18.5098 139.706 17.9766 138.906 17.6147 137.833C17.2593 136.855 17.1704 135.694 17.1704 134.539C17.1704 133.383 17.3481 132.133 17.6147 130.978C17.8813 129.733 18.2368 128.572 18.6812 127.416C19.1255 126.261 19.5698 125.366 20.103 124.566L20.4585 124.478C21.0806 124.744 21.7026 125.011 22.2422 125.277C22.7944 125.639 23.5942 125.906 24.5781 126.083Z" fill="#231F20"/>
<path d="M25.5557 106.139L26.7998 106.583C26.4443 107.739 26.1777 108.456 26.1777 108.634V109.167L26.3555 109.434C26.4443 109.611 26.7998 109.7 27.2441 109.967C27.5107 110.056 27.9551 110.233 28.666 110.5C30.9829 111.389 32.2271 111.833 32.4048 111.922L38.105 113.972L40.7773 114.861C41.7549 115.216 42.377 115.394 42.7388 115.394L43.0942 115.305L43.4497 114.861C43.5386 114.683 43.8052 113.972 44.2495 112.899L45.4937 113.344C44.7827 115.127 43.9829 117.083 43.2656 119.133C42.6436 120.916 42.1104 122.516 41.666 124.033L40.4219 123.589C40.7773 122.345 41.0439 121.716 41.0439 121.45V120.917L40.8662 120.65C40.7773 120.561 40.333 120.383 39.6221 120.028C38.4668 119.583 37.4829 119.139 36.5054 118.784L30.5386 116.645C28.666 115.934 27.4219 115.578 26.8887 115.4C25.6445 115.045 24.8384 114.778 24.5718 114.778L24.2163 114.867L23.9497 115.223C23.8608 115.4 23.5054 116.111 23.061 117.273L21.8169 116.829C22.439 115.496 23.061 113.89 23.6895 112.023C24.3052 109.967 24.9336 108.005 25.5557 106.139Z" fill="#231F20"/>
<path d="M48.439 106.406L47.2837 105.784C47.9946 104.451 48.3501 103.645 48.3501 103.378C48.3501 103.111 48.2612 102.845 48.0835 102.578C47.8169 102.223 46.6616 101.601 44.7891 100.528L36.9561 95.9893C34.8169 94.7451 33.5728 94.1167 33.3062 93.939L32.062 96.0781C31.4399 97.1445 30.9067 98.1284 30.4624 99.0171C30.2847 99.3726 30.1958 99.5503 30.1958 99.6392L30.5513 100.083C31.0845 100.617 31.7065 101.061 32.5127 101.505L31.7129 102.838C29.8403 101.861 28.8628 101.328 28.5962 101.144C28.1519 100.966 27.7075 100.788 27.2632 100.61L27.1743 100.433C27.5298 99.9883 27.7964 99.4551 28.1519 98.9219C28.6851 98.0332 29.6626 96.3384 31.1797 93.8437L34.8296 87.6104C36.3403 85.0269 37.3242 83.2495 37.7686 82.3545C38.0352 81.9102 38.3018 81.377 38.4795 80.8437L38.6572 80.7549C39.1016 81.1992 39.5459 81.4658 39.9902 81.7324C40.0791 81.8213 40.9678 82.3545 42.8403 83.4272L42.0405 84.7603C41.3296 84.4048 40.6187 84.0493 39.9014 83.7827C39.5459 83.6939 39.2793 83.605 39.1904 83.6939L38.835 84.1382C38.3018 84.938 37.6797 85.9219 36.9624 87.0771L36.0737 89.4829C36.3403 89.6606 37.5845 90.3716 39.6348 91.6221L47.4678 96.1606C49.3403 97.2271 50.4956 97.8555 50.9399 97.9443C51.2065 98.0332 51.4731 97.9443 51.7397 97.7666C52.0063 97.5889 52.4507 96.8779 53.2505 95.6274L54.4058 96.2495C53.1616 98.2109 52.1777 99.8994 51.3779 101.239C50.4893 102.756 49.5054 104.444 48.439 106.406Z" fill="#231F20"/>
<path d="M57.7002 72.7441L56.6338 69.0942C56.4561 68.4722 55.834 66.5107 54.7612 63.3052C54.4058 62.2388 54.1392 61.5215 54.0503 61.166L55.834 58.938L56.3672 59.3823C56.7227 61.5215 57.3447 64.0098 58.062 66.6821C58.7729 69.3545 59.2173 71.043 59.4839 71.7603C59.6616 72.2046 59.8394 72.6489 60.0171 72.8267C60.1948 73.0044 60.4614 73.271 60.9058 73.5376L62.9561 75.1372C64.0225 75.8481 64.7397 76.3813 65.2729 76.7368C65.8061 77.0034 66.0728 77.1812 66.2505 77.1812L66.7837 76.9146C66.9614 76.7368 67.4946 76.2036 68.2944 75.1309L69.3608 75.9307C67.939 77.6255 66.5996 79.2251 65.4443 80.647C64.3779 82.0689 63.3052 83.4971 62.2388 85.0078L61.1724 84.208C61.9722 83.1416 62.4165 82.4243 62.5054 82.2466L62.5942 81.7134C62.5942 81.5356 62.3276 81.3579 61.9722 81.0024C61.0835 80.2915 60.3726 79.6694 59.6553 79.1299L57.4272 77.3462C57.2495 77.1685 56.7163 77.0796 55.9165 76.9907C53.8662 76.813 51.7334 76.7241 49.6831 76.6353C47.9883 76.6353 46.4775 76.7241 45.3223 76.9019C44.5225 77.0796 43.9893 77.1685 43.7227 77.2573C43.5449 77.3462 43.1894 77.7017 42.6562 78.4126L41.7676 77.7017L43.6401 74.3184C43.9067 73.6963 44.2622 73.1631 44.5288 72.5347C45.2397 72.1792 45.7729 71.9126 46.2236 71.8237C46.6743 71.7349 47.29 71.646 48.2739 71.646C49.6958 71.646 51.2129 71.7349 52.8125 71.9126C55.4722 72.3887 57.0781 72.6553 57.7002 72.7441Z" fill="#231F20"/>
<path d="M75.4165 56.1831C74.3501 54.6724 73.7217 53.1553 73.4551 51.6445C73.1885 50.1338 73.2774 48.6167 73.8106 47.1948C74.2549 45.6841 74.9658 44.3447 75.8609 43.1895C77.105 41.6787 78.5332 40.3394 80.3106 39.0952C82.0942 37.8511 83.8716 36.9561 85.5664 36.334C86.8994 35.8897 88.1499 35.7119 89.3941 35.7119C90.6382 35.7119 91.711 35.8896 92.5996 36.2451C93.4883 36.6006 94.2944 37.0449 95.0054 37.667C95.7163 38.2891 96.4273 39 97.0557 39.9839C98.1221 41.4946 98.8394 43.1895 99.106 44.9731C99.3726 46.3062 99.2837 47.6455 98.9282 49.0674C98.5728 50.4893 97.9507 51.7397 97.0557 52.9839C95.9004 54.6787 94.2056 56.1895 92.2505 57.6113C90.0225 59.1221 87.8897 60.106 85.9282 60.5503C83.8779 60.9946 81.9229 60.8169 80.1392 60.1948C78.3555 59.3887 76.7559 58.0557 75.4165 56.1831ZM79.4219 52.2666C80.7549 54.228 82.1831 55.561 83.6939 56.3608C85.2046 57.1606 86.6328 57.5161 87.9658 57.3384C89.2988 57.1606 90.6382 56.6274 91.9712 55.7388C93.2153 54.8501 94.1104 53.8662 94.7324 52.7109C95.3545 51.5557 95.5322 50.2163 95.2656 48.6167C94.999 47.0171 94.2881 45.4111 93.1265 43.7163C92.3267 42.561 91.4317 41.5771 90.4541 40.8662C89.4766 40.1553 88.4927 39.6221 87.4263 39.3555C86.4487 39.0889 85.376 39 84.3985 39.1777C83.4209 39.3555 82.2593 39.8887 81.0151 40.7773C79.5933 41.7549 78.6094 42.9165 77.9873 44.1606C77.3652 45.4048 77.2764 46.7441 77.543 48.166C77.8223 49.5054 78.4443 50.9336 79.4219 52.2666Z" fill="#231F20"/>
<path d="M118.695 35.5278L117.184 36.1499C116.651 34.9946 116.295 34.2773 116.029 34.0996C115.94 34.0107 115.673 34.0107 115.318 34.0996C114.429 34.2773 113.179 34.7217 111.401 35.4326C111.135 35.5215 110.69 35.6992 110.068 35.9658L110.69 37.4766C111.579 39.7046 112.201 41.2153 112.652 42.104C113.103 42.9927 113.363 43.437 113.541 43.5259L114.074 43.6147C114.251 43.6147 115.14 43.3481 116.746 42.8149L117.19 43.8813L110.602 46.376C109.624 46.7314 108.196 47.3535 106.152 48.3374L105.619 47.0933C106.952 46.5601 107.669 46.2046 107.847 46.0269L108.024 45.7603C108.113 45.5825 108.024 45.3159 107.936 44.9605C107.847 44.6938 107.669 44.0718 107.225 42.9102C106.78 41.7549 106.514 40.9487 106.247 40.5044L103.93 34.7153C103.841 34.6265 103.308 33.2935 102.331 30.7988C101.975 30.0879 101.708 29.6436 101.531 29.377L101.264 29.1992C101.175 29.1992 100.998 29.1992 100.731 29.1992C100.464 29.2881 99.7534 29.4658 98.6807 29.8213L98.1475 28.5771L104.025 26.3491L111.858 23.0547C112.925 22.6104 113.998 22.2549 115.064 21.8994L115.331 21.9883C115.419 22.6104 115.597 23.2324 115.864 24.1274C116.13 25.0161 116.308 25.7271 116.575 26.3555L115.242 26.8887C115.153 26.7109 114.975 26.1777 114.531 25.4668C114.353 25.1113 114.264 24.8447 114.175 24.7559L113.998 24.667C113.731 24.667 113.287 24.7559 112.487 24.9336C111.776 25.1113 110.887 25.3779 109.903 25.8223C109.726 25.9111 109.192 26.0889 108.393 26.5332C107.593 26.8887 106.971 27.1553 106.698 27.333C106.964 28.3105 107.498 30.0054 108.481 32.4111L109.281 34.3726C110.703 33.8394 111.687 33.5728 112.131 33.3062C113.553 32.773 114.448 32.3286 114.715 32.062L114.893 31.6177C114.893 31.3511 114.715 30.8179 114.448 29.9229L115.959 29.3008C116.822 31.0781 117.622 33.1221 118.695 35.5278Z" fill="#231F20"/>
<path d="M157.873 32.5889L157.25 34.1885C155.829 34.9883 154.578 35.6103 153.423 36.061C152.268 36.4165 150.839 36.772 149.062 36.9497C146.567 37.2163 144.346 37.2163 142.295 36.772C140.696 36.4165 139.356 35.8833 138.201 35.0771C137.046 34.3662 136.151 33.4775 135.44 32.4937C134.374 31.0718 133.745 29.377 133.479 27.5044C133.123 24.3877 134.012 21.6265 136.329 19.3096C138.646 16.9927 142.118 15.5708 146.745 15.0376C148.345 14.8599 149.773 14.771 151.106 14.771C152.439 14.771 153.956 14.9487 155.645 15.3042L155.733 15.4819C155.645 15.9263 155.556 16.5483 155.556 17.2656C155.556 18.4209 155.556 19.4048 155.645 20.3823L154.223 20.5601C154.045 19.4937 153.956 18.5986 153.778 17.9766C152.89 17.3545 151.906 16.999 150.928 16.7324C149.862 16.5547 148.611 16.4658 147.101 16.6436C144.339 16.999 142.2 17.9766 140.689 19.6714C139.179 21.3662 138.639 23.499 138.995 26.1714C139.172 27.771 139.617 29.1103 140.328 30.2656C141.039 31.4209 141.927 32.3159 142.911 32.938C143.978 33.6489 144.961 34.0933 145.939 34.271C147.272 34.6265 148.878 34.6265 150.655 34.4487C151.899 34.271 152.972 34.0044 154.039 33.6489C155.105 33.2935 156.178 32.7603 157.422 32.0493L157.873 32.5889Z" fill="#231F20"/>
<path d="M161.345 35.439V34.6392C162.056 34.3726 162.678 34.106 163.128 33.8394C163.217 33.395 163.306 32.773 163.395 31.7891C163.573 30.0942 163.662 28.8501 163.75 28.0503L164.106 21.2837C164.106 21.0171 164.106 20.0396 164.195 18.3447C164.195 17.1895 164.195 16.4722 164.017 16.2056L163.75 15.939C163.484 15.7612 162.595 15.6724 161.256 15.4946L161.345 14.3394L165.439 14.4282C166.239 14.4282 167.039 14.5171 167.756 14.5171C169.355 14.606 171.139 14.6948 173.189 14.7837L176.839 14.8726C177.284 14.8726 178.084 14.9614 179.423 15.0503C179.512 15.0503 179.778 15.1392 179.956 15.3169L180.045 15.4946L179.601 17.6338C179.601 17.8115 179.512 18.5225 179.334 19.7729L178.001 19.6841C178.001 18.5288 178.001 17.8115 177.912 17.5449L177.734 17.2783C177.557 17.1895 177.112 17.1006 176.313 17.0117C175.157 16.834 173.996 16.7451 172.929 16.6562C171.863 16.5674 170.79 16.5674 169.724 16.6562C169.457 17.7227 169.279 19.1509 169.19 20.9282L169.013 23.9561C169.813 24.1338 170.612 24.2227 171.507 24.2227C171.774 24.2227 172.751 24.3115 174.446 24.3115C175.068 24.3115 175.424 24.3115 175.602 24.2227L175.868 23.9561C176.046 23.6006 176.135 22.9785 176.224 21.9946L177.646 22.0835L177.379 25.3779L177.29 28.6724L175.868 28.5835C175.957 27.4282 175.868 26.7109 175.69 26.4443C175.602 26.2666 175.335 26.0889 174.979 26C174.18 25.8223 173.107 25.7334 171.863 25.6445C170.708 25.5557 169.724 25.5557 169.013 25.6445L168.657 31.9668C168.657 32.6777 168.568 33.2998 168.657 33.7505C169.635 33.9282 170.708 34.0171 172.041 34.106C173.285 34.1948 174.535 34.1948 175.602 34.1948C176.668 34.1948 177.385 34.106 177.652 34.0171L177.918 33.7505C178.185 33.3062 178.452 32.3286 178.718 30.9893L180.14 31.0781C179.785 33.0396 179.518 34.728 179.518 35.9785L179.251 36.1562C178.452 36.2451 177.379 36.1562 176.046 36.1562L173.196 35.9785C170.346 35.8008 168.391 35.623 167.318 35.623C166.95 35.6167 164.995 35.5278 161.345 35.439Z" fill="#231F20"/>
<path d="M183.244 35.2612C184.577 35.6167 185.383 35.7944 185.65 35.7944L186.005 35.7056L186.361 35.2612C186.539 34.9058 186.894 34.0171 187.338 32.6777C187.605 31.8779 187.96 30.894 188.316 29.561L189.649 24.9336L190.804 20.6616C190.982 19.9507 191.071 19.5063 191.071 19.2397L190.982 18.7065L190.538 18.3511C190.271 18.2622 189.56 17.9067 188.398 17.5513L188.754 16.3071C190.176 16.8403 191.249 17.1958 191.959 17.3735L194.454 17.9956L196.054 18.3511C197.653 21.6455 199.704 25.4731 202.021 29.8403C203.715 32.957 205.226 35.4517 206.381 37.3179L207.448 34.0234C208.958 28.8564 209.765 25.7397 209.854 24.7622C209.942 24.4067 209.854 24.1401 209.765 23.9624C209.587 23.6958 208.698 23.3403 207.181 22.896L207.537 21.6519C208.87 22.0962 210.209 22.5405 211.364 22.896C212.431 23.2515 213.859 23.6069 215.636 23.9624L215.281 25.2065C213.859 24.8511 213.053 24.6733 212.697 24.7622L212.431 24.9399C212.164 25.3843 211.72 26.4507 211.187 28.2344C210.653 29.9292 210.298 31.2622 210.031 32.062C208.159 38.562 207.092 42.4785 206.826 43.9067L206.559 43.9956C205.67 43.5513 204.687 43.1069 203.798 42.6626C201.125 38.124 197.387 31.3574 192.582 22.3628L190.531 29.5737C190.087 31.0845 189.731 32.6904 189.287 34.29C189.021 35.4453 188.843 36.1626 188.932 36.4292L189.109 36.7847C189.198 36.8735 189.376 36.9624 189.643 37.1401C190.354 37.4067 190.887 37.5845 191.242 37.7622L191.598 37.8511L191.242 39.0063C189.103 38.2954 187.859 37.9399 187.503 37.8511C186.348 37.4956 184.831 37.1401 182.876 36.6958L183.244 35.2612Z" fill="#231F20"/>
<path d="M216.639 47.6392L217.261 46.4839C218.594 47.106 219.4 47.4614 219.667 47.4614C219.934 47.4614 220.2 47.3726 220.467 47.1948C220.822 46.8394 221.444 45.7729 222.428 43.8115L226.7 35.8008C227.855 33.6616 228.484 32.4175 228.573 32.1509L226.345 30.9956C225.189 30.3735 224.206 29.9292 223.317 29.4849C222.961 29.3071 222.784 29.2183 222.695 29.3071L222.25 29.6626C221.806 30.1958 221.362 30.9067 220.917 31.7129L219.496 31.002C220.384 29.1294 220.917 28.063 221.095 27.8853C221.273 27.4409 221.451 26.9966 221.628 26.5522L221.806 26.4634C222.25 26.73 222.784 27.0855 223.317 27.3521C224.206 27.8853 225.989 28.7739 228.484 30.2022L234.895 33.5855C237.567 35.0073 239.345 35.9023 240.24 36.3467C240.773 36.6133 241.217 36.791 241.75 37.0576L241.839 37.2354C241.484 37.7686 241.128 38.2129 240.862 38.5684C240.773 38.6572 240.24 39.6348 239.262 41.5073L237.84 40.7964C238.196 40.0854 238.462 39.3745 238.729 38.6572C238.818 38.3018 238.907 38.0352 238.818 37.9463C238.818 37.8574 238.64 37.7686 238.374 37.5908C237.574 37.0576 236.59 36.5244 235.346 35.8071L233.118 34.6519C232.94 34.9185 232.229 36.1626 231.156 38.3018L226.884 46.3125C225.907 48.2739 225.285 49.4292 225.189 49.8735C225.101 50.1401 225.189 50.4067 225.367 50.6733C225.545 50.9399 226.256 51.3843 227.506 52.0952L226.884 53.2505C224.834 52.0952 223.146 51.1113 221.717 50.4004C220.378 49.5054 218.594 48.6167 216.639 47.6392Z" fill="#231F20"/>
<path d="M246.2 41.5835L247 40.606C247.178 40.7837 247.889 41.4058 249.139 42.4785C249.761 43.0117 250.65 43.7227 251.723 44.6177C252.7 45.4175 253.506 46.0395 254.306 46.5791C255.461 47.4678 256.445 48.1787 257.245 48.8071C258.667 49.9624 259.74 50.9463 260.273 51.7461C260.895 52.5459 261.162 53.3457 261.25 54.3296C261.339 55.3071 260.984 56.2021 260.362 57.002C259.562 57.9795 258.578 58.5127 257.245 58.7856C255.912 58.9634 254.306 58.6968 252.529 57.9858C252.44 58.519 252.44 59.1411 252.44 59.6807C252.44 60.3027 252.44 60.6582 252.44 60.7471V61.1025L252.351 65.5522C252.351 66.7075 252.351 67.4248 252.351 67.5137C252.44 68.8467 252.44 69.6528 252.529 69.9194C252.618 70.186 252.618 70.4526 252.795 70.5415C252.884 70.7192 253.151 70.9858 253.595 71.3413L252.795 72.3188C251.462 71.0747 250.39 70.1797 249.768 69.7354C249.057 69.1133 248.257 68.5801 247.451 68.0405C247.54 67.8628 247.628 67.5073 247.628 67.063L247.984 60.4741C248.073 58.6016 248.162 57.0908 248.073 55.9355C248.073 55.3135 247.984 54.8691 247.806 54.4248L248.25 54.1582C249.317 55.1357 250.301 55.6689 251.012 55.9419C251.723 56.2085 252.611 56.2085 253.417 55.9419C254.306 55.6753 255.017 55.231 255.557 54.52C256.179 53.8091 256.445 53.0093 256.356 52.2031C256.356 51.4033 256.09 50.6035 255.646 49.9751C255.379 49.5308 254.668 48.9087 253.684 48.1025C253.24 47.7471 252.795 47.3916 252.262 47.125C251.996 47.3916 251.462 48.0137 250.663 48.9976C248.79 51.1367 247.546 52.6475 247.013 53.3584C246.035 54.5137 245.051 55.7642 243.985 57.0972C242.652 58.6968 241.935 59.6807 241.757 59.8584C241.401 60.3027 241.224 60.6582 241.224 60.8359V61.1914L241.49 61.6357C241.668 61.8135 242.201 62.2578 243.001 62.9687L242.201 63.9463C240.69 62.6133 239.084 61.2739 237.574 60.0298C236.152 58.8745 234.812 57.8906 233.568 56.9131L234.368 55.9355C235.435 56.7354 236.063 57.1797 236.33 57.3574L236.685 57.4463L237.041 57.1797C237.307 56.9131 237.751 56.4688 238.285 55.9355L241.135 52.5522L244.696 48.1914L246.657 45.6968C247.457 44.7192 247.813 44.0972 247.901 43.8242V43.4688C247.889 43.1831 247.267 42.561 246.2 41.5835Z" fill="#231F20"/>
<path d="M253.944 73.2837L255.011 72.4839C255.633 73.1948 255.988 73.6392 256.166 73.728L256.61 73.9946L257.232 74.0835C257.499 74.0835 258.299 73.9058 259.816 73.6392C260.527 73.5503 261.866 73.2837 263.821 72.8394L274.416 70.7002L278.065 69.9004L279.576 71.9507L271.743 87.8008L270.766 89.9399L270.055 91.3618L269.966 91.895L270.055 92.3394C270.144 92.4282 270.321 92.7837 270.588 93.228C270.677 93.4058 270.854 93.5835 271.032 93.939L269.966 94.7388L267.116 90.7334L263.288 85.833L264.354 85.0332C265.243 86.1885 265.776 86.728 265.954 86.9058H266.487C266.665 86.728 266.932 86.3726 267.198 85.8394L268.893 82.6338L263.282 75.1562L261.409 75.6006C259.987 75.9561 259.092 76.2227 258.826 76.4004L258.559 76.9336C258.648 77.2891 259.092 78 259.892 79.1616L258.826 79.9614L256.42 76.5781L253.944 73.2837ZM265.345 74.6167C265.967 75.5054 266.767 76.5781 267.573 77.7334C268.373 78.7998 269.172 79.7837 269.89 80.6724L273.806 72.9282L265.345 74.6167Z" fill="#231F20"/>
<path d="M271.756 97.5889L272.467 97.2334C272.733 97.5 273.089 97.7666 273.622 98.1221L274.155 98.3887H274.333C274.6 98.2998 275.399 97.9443 276.828 97.2334C278.25 96.5225 279.855 95.7227 281.817 94.7388C284.667 93.3169 286.444 92.4219 287.073 92.0664C288.768 91.1777 289.656 90.6445 289.834 90.3716L289.923 90.0161C289.923 89.6606 289.567 88.8608 288.945 87.4326L290.101 86.8105C290.723 88.2324 291.434 89.7495 292.329 91.5269C293.306 93.4883 294.29 95.2656 295.268 96.9605L294.112 97.5825C293.401 96.3384 292.957 95.71 292.69 95.4434L292.335 95.3545C292.157 95.3545 291.624 95.6211 290.64 96.0654C289.663 96.5098 288.412 97.1318 286.901 97.938C286.724 98.0269 285.479 98.6489 282.985 99.8994C281.741 100.61 280.401 101.232 279.157 101.861C277.913 102.483 277.107 102.927 276.84 103.016C277.462 104.527 277.907 105.511 278.173 106.044C278.973 107.644 279.773 108.983 280.49 110.049C280.757 110.405 280.935 110.671 281.023 110.76C281.112 110.849 281.379 110.849 281.646 110.76C282.445 110.583 283.34 110.405 284.318 110.138L285.029 111.56C284.762 111.649 284.584 111.738 284.584 111.738L281.646 112.715C280.757 113.071 280.224 113.249 280.046 113.337C279.779 113.071 279.602 112.804 279.424 112.538C279.068 111.916 278.535 110.938 277.824 109.599C277.735 109.421 277.113 108.177 276.041 105.86C275.152 104.076 274.619 102.921 274.257 102.21C273.711 101.239 272.911 99.6392 271.756 97.5889Z" fill="#231F20"/>
<path d="M294.728 138.817L294.373 137.306C295.617 136.951 296.334 136.684 296.512 136.506C296.601 136.417 296.689 136.151 296.689 135.795C296.601 134.907 296.423 133.567 295.979 131.79C295.89 131.523 295.801 131.079 295.623 130.457L294.023 130.813C291.707 131.346 290.107 131.79 289.123 132.057C288.234 132.323 287.701 132.59 287.523 132.679L287.346 133.212C287.346 133.39 287.435 134.367 287.701 135.973L286.546 136.24L285.124 129.384C284.857 128.407 284.502 126.801 283.88 124.757L285.124 124.49C285.479 125.823 285.657 126.629 285.835 126.807L286.102 127.074C286.279 127.163 286.546 127.163 286.901 127.163C287.168 127.163 287.879 126.985 289.041 126.718C290.196 126.452 291.091 126.274 291.624 126.185L297.68 124.763C297.857 124.763 299.19 124.408 301.774 123.786C302.485 123.608 303.018 123.43 303.285 123.252L303.462 122.986C303.462 122.897 303.551 122.719 303.462 122.453C303.462 122.186 303.374 121.475 303.107 120.313L304.351 120.047L305.595 126.191L307.646 134.475C307.912 135.63 308.09 136.792 308.268 137.858L308.09 138.036C307.468 138.036 306.757 138.125 305.862 138.214C304.973 138.303 304.262 138.48 303.545 138.569L303.189 137.147C303.456 137.059 303.9 136.97 304.7 136.703C305.145 136.614 305.322 136.525 305.411 136.437L305.5 136.259C305.589 135.992 305.589 135.548 305.5 134.748C305.411 133.948 305.322 133.053 305.056 132.076C304.967 131.898 304.878 131.365 304.611 130.476C304.345 129.587 304.167 128.965 304.078 128.692C303.101 128.781 301.317 129.137 298.822 129.67L296.772 130.114C297.039 131.625 297.216 132.609 297.394 133.053C297.75 134.564 298.016 135.459 298.194 135.814L298.638 136.081C298.905 136.17 299.527 136.081 300.422 135.903L300.777 137.414C299.444 137.744 297.305 138.195 294.728 138.817Z" fill="#231F20"/>
<path d="M288.406 145.85L289.206 145.761C289.294 146.028 289.561 146.472 289.917 147.005L290.272 147.45L290.45 147.539C290.716 147.539 291.605 147.539 293.122 147.45C294.639 147.361 296.505 147.272 298.645 147.094C301.85 146.828 303.812 146.739 304.522 146.65C306.395 146.472 307.461 146.383 307.728 146.206L307.995 145.939C308.083 145.672 308.172 144.695 308.083 143.178L309.417 143.089C309.417 144.6 309.505 146.294 309.683 148.256C309.861 150.395 310.039 152.439 310.216 154.4L308.883 154.489C308.706 153.156 308.617 152.261 308.439 151.995L308.083 151.728C307.906 151.639 307.284 151.639 306.211 151.728C305.145 151.817 303.716 151.817 302.028 151.995C301.85 151.995 300.428 152.083 297.667 152.35C296.245 152.439 294.817 152.617 293.395 152.706C291.973 152.794 291.167 152.883 290.812 152.883C290.812 154.483 290.9 155.556 290.9 156.178C290.989 157.961 291.256 159.472 291.522 160.805C291.611 161.25 291.7 161.516 291.789 161.605C291.878 161.694 292.056 161.783 292.411 161.872C293.211 162.049 294.106 162.227 295.083 162.405L295.172 164.004C294.906 164.004 294.728 164.004 294.639 164.004L291.611 163.738C290.634 163.738 290.101 163.649 289.917 163.649C289.828 163.293 289.739 162.938 289.65 162.671C289.561 161.96 289.472 160.799 289.294 159.288C289.294 159.11 289.206 157.688 289.117 155.105C289.028 153.144 288.939 151.811 288.85 151.011C288.85 149.944 288.672 148.167 288.406 145.85Z" fill="#231F20"/>
<path d="M299.889 168.822C301.761 169 303.272 169.533 304.516 170.422C305.76 171.222 306.833 172.294 307.633 173.627C308.433 174.96 308.966 176.389 309.232 177.811C309.499 179.683 309.588 181.727 309.321 183.866C309.055 186.005 308.521 187.96 307.811 189.655C307.277 190.899 306.566 191.972 305.671 192.861C304.776 193.749 303.977 194.46 303.177 194.911C302.377 195.355 301.482 195.622 300.504 195.8C299.527 195.978 298.543 195.978 297.388 195.8C295.515 195.533 293.827 195 292.31 194.016C291.154 193.305 290.259 192.321 289.459 191.166C288.66 189.922 288.126 188.583 287.765 187.161C287.32 185.199 287.231 182.978 287.587 180.483C287.942 177.811 288.564 175.583 289.637 173.805C290.71 172.028 292.043 170.6 293.82 169.711C295.439 168.822 297.489 168.467 299.889 168.822ZM300.066 174.434C297.749 174.167 295.794 174.256 294.188 174.878C292.589 175.411 291.338 176.3 290.627 177.373C289.828 178.439 289.383 179.867 289.206 181.467C289.028 182.978 289.117 184.317 289.65 185.561C290.094 186.805 290.983 187.878 292.322 188.678C293.655 189.478 295.35 190.1 297.4 190.277C298.822 190.455 300.073 190.455 301.317 190.188C302.472 190.011 303.545 189.566 304.434 189.033C305.322 188.5 306.033 187.789 306.573 186.894C307.106 186.005 307.461 184.844 307.639 183.333C307.817 181.638 307.728 180.127 307.195 178.794C306.662 177.55 305.773 176.478 304.522 175.767C303.183 175.056 301.761 174.611 300.066 174.434Z" fill="#231F20"/>
<path d="M303.45 203.995L304.694 204.439C304.605 204.706 304.25 205.594 303.627 207.111C303.361 207.822 302.917 208.895 302.383 210.317C301.939 211.472 301.583 212.545 301.406 213.345C300.961 214.767 300.606 215.928 300.251 216.817C299.628 218.601 299.006 219.845 298.467 220.645C297.934 221.444 297.223 221.978 296.328 222.428C295.439 222.784 294.455 222.784 293.566 222.428C292.411 221.984 291.516 221.184 290.894 220.022C290.272 218.867 290.005 217.261 290.094 215.306C289.561 215.395 289.028 215.573 288.399 215.751C287.866 215.928 287.511 216.017 287.333 216.106L286.978 216.195L282.706 217.617C281.55 217.972 280.922 218.239 280.833 218.239C279.589 218.772 278.872 219.039 278.605 219.216L278.072 219.661C277.983 219.838 277.805 220.194 277.539 220.638L276.294 220.194C277.005 218.499 277.539 217.255 277.805 216.455C278.161 215.566 278.427 214.671 278.605 213.694C278.872 213.694 279.138 213.694 279.583 213.605L285.905 211.821C287.688 211.288 289.199 210.844 290.266 210.399C290.799 210.222 291.243 209.955 291.599 209.688L292.043 210.044C291.51 211.377 291.243 212.45 291.243 213.25C291.243 214.049 291.51 214.76 292.043 215.566C292.576 216.277 293.287 216.811 294.093 217.166C294.982 217.521 295.788 217.521 296.499 217.255C297.299 216.988 297.921 216.455 298.372 215.833C298.727 215.389 299.083 214.589 299.527 213.338C299.705 212.805 299.882 212.272 299.971 211.644C299.616 211.466 298.905 211.199 297.743 210.755C295.071 209.688 293.293 209.06 292.398 208.705C290.977 208.171 289.459 207.638 287.86 207.105C285.898 206.394 284.743 206.039 284.477 205.95C283.943 205.772 283.588 205.683 283.41 205.772L283.144 205.95L282.788 206.394C282.699 206.572 282.433 207.283 281.988 208.355L280.744 207.911C281.544 206.039 282.255 204.172 282.972 202.211C283.594 200.516 284.127 198.917 284.572 197.406L285.816 197.85C285.372 199.094 285.194 199.9 285.194 200.167V200.522L285.549 200.789C285.905 200.967 286.438 201.233 287.149 201.589L291.243 203.188L296.499 205.15L299.527 206.127C300.682 206.572 301.488 206.75 301.755 206.75L302.11 206.572C302.472 206.039 302.828 205.328 303.45 203.995Z" fill="#231F20"/>
<path d="M287.333 242.195L286.178 241.573C286.8 240.506 287.066 239.878 287.155 239.611L287.244 239.078L287.155 238.812C287.066 238.634 286.8 238.456 286.355 238.189C286.089 238.012 285.733 237.834 285.111 237.39C282.972 236.146 281.817 235.428 281.639 235.339L276.383 232.312L273.978 230.979C273.089 230.445 272.467 230.179 272.105 230.09H271.661L271.216 230.445C271.039 230.623 270.683 231.245 270.061 232.229L268.906 231.607C269.972 230.007 271.045 228.224 272.111 226.262C273.089 224.567 273.895 223.057 274.517 221.724L275.672 222.346C275.05 223.501 274.695 224.129 274.695 224.307L274.606 224.84L274.695 225.107C274.784 225.196 275.139 225.462 275.85 225.907C276.917 226.529 277.812 227.151 278.7 227.69L284.223 230.896C286.006 231.874 287.073 232.496 287.606 232.769C288.761 233.391 289.479 233.657 289.834 233.746H290.189L290.545 233.48C290.723 233.302 291.078 232.68 291.789 231.607L292.944 232.229C292.145 233.473 291.25 234.99 290.272 236.59C289.206 238.716 288.228 240.5 287.333 242.195Z" fill="#231F20"/>
<path d="M267.566 234.978L268.188 235.511C268.188 235.6 268.1 235.777 268.1 236.044C268.011 236.488 267.922 237.021 267.833 237.466C268.722 238.443 270.328 239.96 272.638 241.916L274.511 243.515C275.488 244.404 277.005 245.654 278.96 247.254C280.027 248.143 280.744 248.676 281.188 248.854H281.455L281.899 248.676C282.077 248.587 282.61 248.054 283.594 247.165L284.572 247.965L280.211 252.77C279.678 253.303 278.789 254.465 277.45 256.064C276.472 257.22 275.666 258.204 275.133 258.826C273.711 260.425 272.549 261.587 271.572 262.387C270.594 263.187 269.61 263.809 268.633 264.17C267.655 264.526 266.671 264.792 265.783 264.881C264.894 264.97 263.999 264.881 263.199 264.615C261.866 264.17 260.616 263.548 259.46 262.476C258.039 261.231 256.966 259.803 256.433 258.115C255.811 256.515 255.633 254.82 255.811 253.037C255.988 251.253 256.521 249.564 257.232 248.047C258.032 246.448 259.194 244.753 260.793 242.969L264.355 239.053L267.566 234.978ZM264.272 241.655C263.472 242.366 262.672 243.166 262.044 243.883C260.978 245.039 260.171 246.2 259.638 247.355C259.194 248.155 258.927 248.955 258.75 249.761C258.572 250.561 258.661 251.456 258.838 252.434C259.016 253.411 259.372 254.395 259.994 255.373C260.616 256.35 261.327 257.245 262.311 258.045C263.199 258.756 264.094 259.378 265.161 259.829C266.227 260.273 267.3 260.451 268.366 260.362C269.521 260.273 270.594 259.917 271.661 259.295C272.727 258.584 274.066 257.334 275.666 255.557C276.288 254.846 276.91 254.046 277.539 253.151C276.472 252.173 274.511 250.39 271.483 247.806L268.899 245.578C266.589 243.528 265.078 242.284 264.272 241.655Z" fill="#231F20"/>
<path d="M248.244 256.706L249.044 257.772C248.333 258.394 247.889 258.75 247.8 258.927L247.533 259.372L247.444 259.994C247.444 260.26 247.622 261.06 247.889 262.577C247.978 263.288 248.244 264.627 248.688 266.583L250.828 277.177L251.627 280.827L249.577 282.337L233.727 274.504L231.588 273.527L230.166 272.905L229.633 272.816L229.188 272.905C229.011 272.994 228.744 273.171 228.3 273.438C228.122 273.527 227.944 273.705 227.589 273.882L226.789 272.816L230.794 269.966L235.695 266.138L236.495 267.205C235.339 268.093 234.8 268.626 234.711 268.804V269.337C234.889 269.515 235.244 269.782 235.777 270.048L238.983 271.743L246.46 266.132L246.016 264.259C245.661 262.837 245.394 261.942 245.216 261.676L244.683 261.409C244.417 261.498 243.617 261.942 242.455 262.742L241.655 261.676L245.039 259.27L248.244 256.706ZM246.911 268.011C246.022 268.633 244.95 269.433 243.794 270.239C242.728 271.039 241.744 271.838 240.855 272.556L248.6 276.472L246.911 268.011Z" fill="#231F20"/>
<path d="M1.24414 162.5H2.48828C2.48828 118.244 20.3887 78.2666 49.4102 49.3276C78.3555 20.3887 118.422 2.40576 162.589 2.40576C206.845 2.40576 246.822 20.3062 275.761 49.3276C304.7 78.2666 322.683 118.333 322.683 162.5C322.683 206.756 304.783 246.733 275.761 275.672C246.822 304.611 206.756 322.594 162.589 322.594C118.333 322.594 78.3555 304.694 49.4165 275.672C20.2998 246.733 2.40576 206.756 2.40576 162.5H1.24414H0C0 252.256 72.7441 325 162.5 325C252.256 325 325 252.256 325 162.5C325 72.7441 252.256 0 162.5 0C72.7441 0 0 72.7441 0 162.5H1.24414Z" fill="#231F20"/>
<path d="M115.216 282.883C115.216 282.883 110.767 287.6 104.711 287.066C104.711 287.066 109.7 290.983 108.894 297.039C108.894 297.039 113.61 292.322 119.933 293.478C119.933 293.478 114.943 288.488 115.483 284.661L115.216 282.883Z" fill="#231F20"/>
<path d="M115.216 282.883L114.772 282.528L114.594 282.706C113.794 283.505 110.233 286.533 105.6 286.533C105.333 286.533 104.978 286.533 104.622 286.533L102.75 286.355L104.26 287.511L104.438 287.688C105.238 288.311 108.354 291.338 108.266 295.699C108.266 296.144 108.266 296.499 108.177 296.943L107.999 298.543L109.154 297.388L109.332 297.21C110.043 296.499 113.426 293.738 117.882 293.738C118.504 293.738 119.126 293.827 119.755 293.916L121.45 294.182L120.206 292.938C120.206 292.938 119.939 292.671 119.495 292.227C118.25 290.805 115.845 287.6 115.845 285.105V284.572V284.483L115.578 282.699L115.4 281.633L114.601 282.433L115.216 282.883L114.683 282.972L114.95 284.667L115.483 284.578L114.95 284.489L114.861 285.2C114.861 287.339 116.016 289.383 117.178 291.078C118.333 292.678 119.495 293.839 119.495 293.839L119.85 293.484L119.939 292.951C119.228 292.862 118.517 292.773 117.889 292.773C112.277 292.773 108.45 296.689 108.361 296.689L108.716 297.045L109.25 297.134C109.338 296.601 109.338 296.156 109.338 295.712C109.338 290.101 104.889 286.717 104.889 286.628L104.533 287.073L104.444 287.606C104.8 287.606 105.155 287.695 105.511 287.695C111.389 287.695 115.394 283.334 115.394 283.334L115.216 282.883Z" fill="#231F20"/>
<path d="M211.294 283.15C211.294 283.15 211.561 289.828 207.467 292.855C207.467 292.855 213.522 292.855 217.706 297.845C217.706 297.845 217.439 290.9 220.467 287.606C220.467 287.606 214.944 286.806 212.989 284.045L211.294 283.15Z" fill="#231F20"/>
<path d="M211.294 283.15H210.761V283.416C210.761 284.661 210.495 289.917 207.111 292.411L205.778 293.389H207.473H207.74C208.895 293.478 213.884 294.011 217.356 298.194L218.423 299.438L218.334 297.838C218.334 297.838 218.334 297.661 218.334 297.394C218.334 295.883 218.601 290.539 221.006 287.955L221.717 287.155L220.651 286.978C220.651 286.978 220.295 286.889 219.762 286.8C218.163 286.444 214.773 285.467 213.529 283.594L213.44 283.505L211.656 282.617L210.856 282.172V283.15H211.294L211.028 283.683L212.723 284.483L212.989 283.95L212.545 284.305C213.611 285.905 215.573 286.8 217.261 287.333C218.956 287.866 220.378 288.133 220.378 288.133L220.467 287.6L220.022 287.244C217.261 290.361 217.083 295.794 217.083 297.394C217.083 297.661 217.083 297.838 217.083 297.838H217.617L218.061 297.483C213.7 292.316 207.467 292.316 207.378 292.316V292.849L207.733 293.293C211.65 290.354 211.828 284.743 211.828 283.41V283.144H211.294L211.028 283.677L211.294 283.15Z" fill="#231F20"/>
<path d="M279.145 182.711H245.934C242.195 208.178 240.589 222.955 240.145 226.967C240.056 227.678 240.056 228.122 240.056 228.122C232.312 237.294 219.578 235.333 219.578 235.333L222.961 227.049L226.789 217.61C234.533 222.6 234.533 211.644 234.533 211.644L234.711 183.06H232.305C226.072 200.865 218.239 215.916 210.666 227.049C201.494 240.671 192.588 248.955 187.25 253.405C184.044 256.077 182.171 257.41 182.171 257.41C183.238 256.166 184.311 254.827 185.199 253.494L184.133 253.405H185.199C192.144 243.61 194.105 233.638 194.549 226.96V227.049C194.816 222.149 194.372 219.216 194.372 219.216C193.127 203.277 180.927 188.5 175.316 183.155H169.793C177.36 192.061 181.727 198.206 181.727 198.206C189.649 211.028 190.722 222.873 190.899 227.145C190.899 228.211 190.899 228.655 190.899 228.655C189.922 239.783 185.021 248.066 180.927 253.411C177.811 257.861 175.138 259.467 175.138 259.467C176.382 257.239 177.544 255.195 178.433 253.411C181.194 248.066 182.349 244.505 182.349 244.505C183.86 237.383 183.149 231.15 181.905 226.7C180.394 221.355 177.988 217.972 177.988 217.972C171.311 207.467 150.027 195.622 150.027 195.622C141.743 190.995 134.977 186.539 129.638 182.622H122.96C131.6 189.3 138.633 193.394 138.633 193.394C157.422 204.433 164.366 210.044 164.366 210.044C171.488 215.211 175.405 222.422 177.277 226.96C178.344 229.455 178.699 231.144 178.699 231.144C179.232 242.271 176.827 249.311 174.338 253.583C172.021 257.588 169.533 259.105 169.533 259.105C170.244 257.232 170.777 255.366 171.044 253.583C172.644 243.788 168.727 235.682 168.727 235.682C167.127 232.21 164.455 229.36 161.338 226.687C153.239 220.454 142.46 217.16 142.46 217.16C131.422 213.865 115.661 207.81 115.661 207.81C99.1885 201.576 87.6104 191.604 79.9551 182.698H73.6328C81.4658 192.493 89.6606 198.993 89.6606 198.993C107.377 211.993 135.605 219.204 135.605 219.204C143.527 221.076 149.494 224.009 154.039 226.948C162.678 232.648 165.794 238.526 165.794 238.526C168.111 244.759 168.467 249.653 167.845 253.487C166.423 262.66 159.383 265.421 159.383 265.421C161.345 260.432 161.522 256.604 160.627 253.487C157.511 242.804 141.127 242.449 141.127 242.449C111.922 242.893 90.5493 232.121 82.0054 226.954C79.2441 225.259 77.8223 224.371 77.8223 224.371C60.1948 211.282 53.333 193.743 50.667 183.054H46.1284C48.9785 199.082 55.2119 214.043 63.8447 227.132L68.3833 227.043C62.5054 218.226 60.2837 211.815 60.2837 211.815L68.834 221.343C70.8843 223.393 73.106 224.904 75.334 226.687C84.3286 233.81 93.501 237.637 93.501 237.637C106.768 244.582 127.785 245.737 127.785 245.737C144.346 246.003 150.757 248.409 150.757 248.409C153.696 249.92 155.473 251.526 156.457 253.31C159.485 258.654 155.48 264.17 155.48 264.17C146.929 273.876 126.985 270.493 126.985 270.493C113.629 265.954 102.68 260.432 93.8628 253.31C81.8403 244.404 73.6519 234.698 68.396 226.865H63.8574C70.5352 236.926 78.6411 246.276 87.896 253.398C108.285 270.315 134.285 280.021 162.602 280.021C190.918 280.021 217.007 270.137 237.307 253.487C246.568 245.921 254.757 237.015 261.346 226.954C270.061 213.789 276.294 198.828 279.145 182.711Z" fill="#231F20"/>
<path d="M232.305 182.711C233.194 180.216 234 177.633 234.8 174.967L234.711 182.711H232.305Z" fill="#231F20"/>
<path d="M162.589 43.1831C97.1445 43.1831 44.167 96.3384 44.167 161.783C44.167 168.994 44.7891 175.849 46.0395 182.978H50.5781C48.8833 175.855 48.8833 170.955 48.8833 170.955C48.0835 133.288 58.8555 114.683 58.8555 114.683L57.4336 123.5C54.6724 140.061 60.9946 159.294 60.9946 159.294C63.1338 168.022 68.2056 175.855 73.4614 182.978H79.7837C71.0557 172.294 67.4058 164.011 67.4058 164.011C54.939 135.25 64.9111 107.739 64.9111 107.739C78.4443 73.728 115.039 56.8052 115.039 56.8052L112.277 59.833C103.994 66.5107 101.239 70.8716 101.239 70.8716C88.772 87.4326 86.8169 102.927 86.8169 102.927C81.2944 126.699 95.3672 152.344 95.3672 152.344C101.512 164.455 113.172 174.96 122.878 182.971H129.556C119.672 175.849 114.772 170.682 114.772 170.682C92.0664 149.132 90.4668 124.916 90.4668 124.916C89.667 92.771 100.706 77.543 100.706 77.543C118.422 52.6094 139.439 49.0483 139.439 49.0483C174.611 39.876 198.917 52.6094 198.917 52.6094L187.878 51.4541C174.878 49.2261 164.106 53.1489 164.106 53.1489C148.878 57.332 138.106 71.4048 138.106 71.4048C127.867 82.1768 123.951 102.121 123.951 102.121C122.529 114.055 125.373 127.854 125.373 127.854C129.822 145.844 147.812 160.354 147.812 160.354C156.628 168.01 164.195 175.76 169.984 182.882H175.506C173.812 181.099 172.745 179.943 172.745 179.943C140.067 147.532 140.601 145.304 140.601 145.304C174.078 89.9209 214.24 116.187 214.24 116.187C215.662 111.198 221.451 104.521 221.451 104.521L226.44 156.521C218.156 166.759 211.212 165.337 211.212 165.337C204.89 140.404 195.184 142.632 195.184 142.632C186.634 145.393 189.128 160.888 189.128 160.888C191.623 180.299 207.651 177.449 207.651 177.449C225.64 171.393 236.412 153.677 236.412 153.677L248.612 166.588C247.724 172.377 246.917 177.449 246.207 182.793H279.151C280.395 175.671 281.023 168.816 281.023 161.599C281.011 96.3447 227.944 43.1831 162.589 43.1831ZM168.111 87.439C168.111 87.439 165.617 76.9336 157.073 74.7056C157.073 74.7056 166.245 72.7441 168.74 64.7334L169.806 62.5054C169.806 62.5054 170.339 73.2773 181.74 76.0386C181.645 76.1274 171.406 75.8608 168.111 87.439Z" fill="#231F20"/>
<path d="M133.117 138.011L134.539 135.961C134.805 135.605 134.983 135.338 135.25 135.25C135.694 134.983 136.227 134.983 136.76 135.338C137.027 135.516 137.205 135.694 137.293 135.961C137.382 136.227 137.382 136.494 137.382 136.76L137.916 136.583C138.093 136.583 138.36 136.671 138.626 136.849L139.249 137.205L139.693 137.471H140.137L140.226 137.56L139.693 138.36L139.515 138.271L139.16 138.093L138.36 137.649C138.093 137.471 137.738 137.471 137.56 137.56L137.116 138.004L136.227 139.337L138.188 140.671L137.744 141.293L133.117 138.011ZM136.589 137.389C136.767 137.122 136.855 136.856 136.855 136.589C136.855 136.322 136.678 136.145 136.411 135.878C136.056 135.7 135.789 135.611 135.522 135.789L135.078 136.233L134.101 137.744L135.7 138.811L136.589 137.389Z" fill="white"/>
<path d="M136.411 133.294L138.728 130L139.35 130.355L137.389 133.028L138.728 134.094L140.505 131.6L141.039 131.961L139.261 134.45L140.772 135.522L142.733 132.85L143.267 133.206L140.861 136.5L136.411 133.294Z" fill="white"/>
<path d="M140.683 127.683L141.216 127.061L146.828 129.022L146.294 129.645L144.6 129.022L143.267 130.717L144.155 132.228L143.711 132.85L140.683 127.683ZM143.978 128.845L141.572 127.956L142.905 130.184L143.978 128.845Z" fill="white"/>
<path d="M146.206 122.167C146.739 122.167 147.183 122.256 147.539 122.522L147.005 123.056C146.65 122.878 146.383 122.789 146.028 122.878C145.672 122.878 145.406 123.056 145.139 123.411C144.784 123.767 144.606 124.211 144.695 124.744C144.784 125.277 145.05 125.811 145.672 126.344C146.117 126.788 146.65 127.055 147.094 127.055C147.627 127.144 148.072 126.966 148.427 126.521C148.783 126.166 148.96 125.633 148.783 125.188C148.694 124.922 148.605 124.655 148.338 124.3L148.872 123.767C149.227 124.211 149.494 124.744 149.494 125.277C149.583 125.899 149.316 126.521 148.783 127.061C148.338 127.505 147.805 127.772 147.272 127.861C146.472 127.95 145.761 127.594 144.955 126.883C144.333 126.35 143.978 125.728 143.889 125.011C143.8 124.3 143.978 123.589 144.6 123.049C145.139 122.434 145.672 122.167 146.206 122.167Z" fill="white"/>
<path d="M147.272 120.561L147.805 120.028L149.411 121.627L151.461 119.672L149.855 118.066L150.389 117.533L154.305 121.45L153.772 121.989L151.906 120.117L149.944 122.167L151.728 123.944L151.195 124.478L147.272 120.561Z" fill="white"/>
<path d="M153.594 114.772L156.711 112.461L157.066 112.995L154.578 114.861L155.645 116.2L157.784 114.594L158.228 115.127L156 116.733L157.511 118.784L156.978 119.228L153.594 114.772Z" fill="white"/>
<path d="M161.789 109.878C162.411 110.056 162.855 110.5 163.3 111.122C163.744 111.833 164.011 112.455 163.922 113.172C163.833 113.972 163.478 114.683 162.678 115.134C161.967 115.578 161.256 115.756 160.539 115.578C159.828 115.4 159.294 114.956 158.844 114.245C158.399 113.623 158.222 113.001 158.222 112.284C158.222 111.484 158.666 110.773 159.377 110.233C160.272 109.789 161.078 109.611 161.789 109.878ZM163.211 113.261C163.211 112.728 163.033 112.195 162.678 111.662C162.322 111.128 161.878 110.773 161.345 110.684C160.812 110.506 160.367 110.684 159.834 110.951C159.39 111.306 159.123 111.662 159.034 112.195C158.945 112.728 159.123 113.35 159.567 113.979C159.923 114.512 160.367 114.867 160.812 115.045C161.345 115.223 161.878 115.134 162.411 114.689C163.033 114.239 163.3 113.794 163.211 113.261Z" fill="white"/>
<path d="M163.211 108.183L165.439 107.028C165.794 106.85 166.15 106.761 166.417 106.672C166.95 106.672 167.394 106.939 167.75 107.472C167.927 107.739 168.016 108.005 167.927 108.272L167.661 108.983L168.283 109.072C168.46 109.161 168.638 109.338 168.816 109.605L169.171 110.227L169.438 110.583L169.793 110.76L169.882 110.849L169.083 111.293L168.905 111.116L168.638 110.76L168.194 109.96C168.016 109.605 167.75 109.516 167.483 109.516C167.305 109.516 167.127 109.605 166.861 109.694L165.439 110.494L166.594 112.633L165.883 112.988L163.211 108.183ZM166.505 109.256C166.772 109.078 167.039 108.9 167.127 108.723C167.216 108.545 167.216 108.189 167.039 107.923C166.861 107.567 166.594 107.39 166.328 107.39L165.706 107.567L164.106 108.367L164.995 110.062L166.505 109.256Z" fill="white"/>
<path d="M174.345 103.111L174.611 103.733L172.828 104.444L174.611 108.989L173.9 109.256L172.117 104.711L170.333 105.333L170.155 104.711L174.345 103.111Z" fill="white"/>
<path d="M175.767 102.667L176.478 102.489L177.011 104.711L179.772 104.089L179.239 101.861L180.039 101.683L181.289 107.117L180.489 107.294L179.95 104.711L177.1 105.333L177.728 107.916L177.011 108.094L175.767 102.667Z" fill="white"/>
<path d="M181.645 101.417L185.65 100.706L185.739 101.417L182.444 101.95L182.711 103.556L185.739 103.111L185.828 103.733L182.8 104.267L183.155 106.139L186.45 105.6L186.539 106.228L182.533 106.85L181.645 101.417Z" fill="white"/>
<path d="M190.195 104.355C190.195 104.711 190.284 104.889 190.373 105.155C190.639 105.511 190.995 105.688 191.617 105.688C191.883 105.688 192.15 105.688 192.328 105.6C192.772 105.422 192.95 105.155 192.95 104.8C192.95 104.533 192.861 104.267 192.683 104.178C192.505 104.089 192.239 103.911 191.794 103.822L191.083 103.645C190.639 103.556 190.284 103.378 190.106 103.289C189.75 103.022 189.573 102.667 189.573 102.223C189.573 101.689 189.75 101.334 190.106 100.979C190.461 100.623 190.906 100.534 191.528 100.534C192.061 100.534 192.594 100.712 192.95 100.979C193.305 101.245 193.572 101.689 193.483 102.312H192.772C192.772 102.045 192.683 101.778 192.594 101.601C192.417 101.334 191.972 101.156 191.528 101.156C191.084 101.156 190.817 101.245 190.639 101.423L190.373 102.045C190.373 102.312 190.461 102.489 190.728 102.667C190.906 102.756 191.172 102.845 191.706 103.022L192.417 103.2C192.772 103.289 193.039 103.378 193.216 103.556C193.572 103.822 193.75 104.178 193.75 104.711C193.75 105.333 193.483 105.777 193.039 106.044C192.594 106.311 192.061 106.399 191.528 106.399C190.817 106.399 190.373 106.222 189.928 105.866C189.573 105.511 189.395 105.066 189.395 104.444L190.195 104.355Z" fill="white"/>
<path d="M199.716 101.505L199.627 102.127L197.761 101.861L197.05 106.672L196.244 106.584L197.05 101.683L195.178 101.417L195.267 100.794L199.716 101.505Z" fill="white"/>
<path d="M201.944 101.95L202.744 102.127L203.366 108.005L202.566 107.828L202.389 106.044L200.25 105.511L199.272 107.021L198.561 106.844L201.944 101.95ZM202.3 105.422L202.033 102.838L200.611 104.978L202.3 105.422Z" fill="white"/>
<path d="M205.861 103.022L208.267 103.822C208.622 104 208.978 104.089 209.155 104.355C209.6 104.711 209.688 105.244 209.422 105.866C209.333 106.222 209.155 106.399 208.978 106.577C208.8 106.755 208.533 106.844 208.267 106.844L208.622 107.377C208.711 107.555 208.622 107.821 208.533 108.088L208.355 108.799L208.267 109.243L208.355 109.688V109.776L207.467 109.51V109.332L207.556 108.888L207.822 107.999C207.911 107.644 207.911 107.377 207.733 107.199C207.645 107.11 207.467 107.021 207.111 106.933L205.512 106.399L204.712 108.627L204.001 108.361L205.861 103.022ZM207.378 106.228C207.733 106.317 208 106.406 208.178 106.317C208.444 106.228 208.622 106.05 208.711 105.695C208.8 105.339 208.8 104.984 208.622 104.806L208.089 104.54L206.394 104.006L205.772 105.79L207.378 106.228Z" fill="white"/>
<path d="M210.495 108.805C210.406 109.072 210.317 109.338 210.317 109.605C210.406 110.049 210.672 110.405 211.206 110.671L211.916 110.849C212.361 110.938 212.716 110.76 212.894 110.405C213.072 110.138 213.072 109.872 212.894 109.694C212.805 109.516 212.539 109.249 212.272 108.983L211.65 108.539C211.294 108.272 211.028 108.005 210.939 107.739C210.761 107.383 210.761 107.028 210.939 106.583C211.117 106.139 211.472 105.872 211.916 105.695C212.361 105.517 212.894 105.606 213.427 105.872C213.96 106.139 214.316 106.495 214.582 106.85C214.849 107.294 214.76 107.739 214.494 108.361L213.872 108.094C213.96 107.828 213.96 107.561 213.96 107.383C213.872 107.028 213.605 106.761 213.161 106.495C212.805 106.317 212.45 106.228 212.183 106.317L211.65 106.761V107.472C211.739 107.65 212.005 107.828 212.361 108.183L212.983 108.716C213.249 108.983 213.516 109.161 213.605 109.427C213.783 109.783 213.783 110.227 213.605 110.671C213.338 111.205 212.983 111.56 212.45 111.56C211.916 111.649 211.472 111.471 210.939 111.293C210.317 111.027 209.961 110.582 209.784 110.138C209.606 109.694 209.606 109.161 209.873 108.627L210.495 108.805Z" fill="white"/>
</g>
<defs>
<clipPath id="clip0_391_431">
<rect width="325" height="325" fill="white"/>
</clipPath>
</defs>
</svg>
